<?xml version="1.0" standalone="no"?>
<!DOCTYPE svg PUBLIC "-//W3C//DTD SVG 20010904//EN"
 "http://www.w3.org/TR/2001/REC-SVG-20010904/DTD/svg10.dtd">
<svg version="1.0" xmlns="http://www.w3.org/2000/svg"
 width="343.000000pt" height="343.000000pt" viewBox="0 0 343.000000 343.000000"
 preserveAspectRatio="xMidYMid meet">
<metadata>
Created by potrace 1.14, written by Peter Selinger 2001-2017
</metadata>
<g transform="translate(0.000000,343.000000) scale(0.100000,-0.100000)"
fill="#000000" stroke="none">
<path d="M1075 2774 c-33 -6 -73 -15 -90 -19 -37 -8 -187 -81 -213 -103 -11
-9 -34 -28 -53 -42 -18 -14 -42 -36 -53 -49 -12 -13 -26 -29 -33 -36 -34 -36
-132 -204 -134 -230 0 -3 -7 -24 -15 -47 -9 -24 -17 -52 -20 -63 -2 -11 -6
-31 -9 -45 -9 -44 -15 -73 -20 -115 -3 -22 -8 -51 -10 -65 -3 -14 -7 -43 -10
-65 -10 -79 -16 -121 -25 -180 -5 -33 -12 -80 -15 -105 -3 -25 -7 -56 -10 -70
-3 -14 -7 -45 -10 -70 -3 -25 -8 -52 -10 -60 -2 -8 -7 -40 -10 -70 -3 -30 -8
-66 -10 -80 -2 -14 -7 -45 -11 -70 -4 -25 -7 -75 -8 -112 -1 -60 2 -69 27 -92
15 -14 32 -26 38 -26 17 0 24 -2 41 -11 9 -5 40 -11 70 -15 29 -3 68 -7 86
-10 17 -2 47 -6 65 -8 19 -2 52 -6 73 -10 131 -19 216 -30 314 -41 30 -3 63
-8 73 -11 9 -3 41 -7 70 -10 28 -2 62 -6 74 -8 11 -3 43 -7 70 -11 26 -3 77
-10 113 -15 63 -9 118 -16 190 -26 19 -2 46 -6 60 -9 14 -3 48 -7 75 -10 28
-3 57 -8 65 -10 8 -2 41 -7 73 -10 32 -4 66 -8 77 -10 10 -2 40 -6 67 -10 26
-4 59 -9 73 -11 14 -2 43 -6 65 -9 22 -3 49 -7 60 -9 12 -2 45 -7 75 -11 107
-12 115 -14 115 -15 0 -2 13 -4 140 -21 88 -11 119 -16 168 -25 64 -12 191
-10 218 3 32 16 64 86 74 163 4 30 8 62 10 70 1 8 5 38 9 65 3 28 8 59 10 70
2 11 7 43 10 70 11 81 16 113 22 153 3 20 7 51 10 67 9 77 34 245 40 275 14
70 13 319 -2 400 -17 94 -22 115 -24 115 -1 0 -3 9 -5 21 -13 66 -104 243
-162 314 -41 51 -166 170 -178 170 -3 0 -15 9 -27 20 -12 10 -25 17 -29 14 -4
-2 -10 0 -14 6 -12 19 -176 86 -235 96 -14 2 -41 7 -60 10 -53 10 -158 11
-220 2 -63 -10 -160 -37 -175 -50 -5 -4 -17 -8 -27 -8 -10 0 -18 -5 -18 -12 0
-6 -3 -8 -6 -5 -4 4 -42 -18 -85 -48 l-78 -55 -53 50 c-50 47 -137 101 -203
127 -56 21 -70 26 -75 28 -8 2 -62 15 -90 21 -52 11 -227 10 -285 -2z"/>
</g>
</svg>
